<?xml version="1.0" standalone="no"?>
<!DOCTYPE svg PUBLIC "-//W3C//DTD SVG 1.1//EN" "http://www.w3.org/Graphics/SVG/1.1/DTD/svg11.dtd" >
<svg xmlns="http://www.w3.org/2000/svg" xmlns:xlink="http://www.w3.org/1999/xlink" version="1.1">
<metadata></metadata>
<defs>
<font id="thunderextra_bold_lc" horiz-adv-x="745" >
<font-face units-per-em="2048" ascent="1638" descent="-410" />
<missing-glyph horiz-adv-x="337" />
<glyph horiz-adv-x="0" />
<glyph horiz-adv-x="0" />
<glyph unicode="&#xd;" horiz-adv-x="512" />
<glyph unicode=" "  horiz-adv-x="337" />
<glyph unicode="&#x09;" horiz-adv-x="337" />
<glyph unicode="&#xa0;" horiz-adv-x="337" />
<glyph unicode="!" horiz-adv-x="395" d="M35 1229v205h327v-205l-36 -883h-256zM37 160q0 168 162 168q78 0 119.5 -44t41.5 -126q0 -168 -161 -168q-162 0 -162 170z" />
<glyph unicode="&#x22;" horiz-adv-x="567" d="M27 1321v154h239v-154l-20 -440h-199zM303 1321v154h239v-154l-20 -440h-199z" />
<glyph unicode="#" horiz-adv-x="931" d="M27 453v200h180l8 125h-188v201h198l27 455h219l-25 -455h70l27 455h219l-25 -455h170v-201h-182l-6 -125h188v-200h-200l-27 -453h-219l26 453h-71l-27 -453h-219l27 453h-170zM428 653h70l8 125h-72z" />
<glyph unicode="$" horiz-adv-x="796" d="M23 358v142h327v-166q0 -70 49 -70q47 0 47 68v110q0 29 -4 47.5t-20 36t-47 37t-86 47.5l-72 35q-55 29 -92 63.5t-59.5 84t-31.5 114t-9 150.5v20q0 150 62.5 241t180.5 122l-16 196h293l-19 -198q119 -33 182.5 -125t63.5 -236v-143h-328v168q0 68 -45 67 q-47 0 -47 -67v-107q0 -27 4 -46t21.5 -37.5t51.5 -40t93 -52.5l62 -28q55 -29 92 -63t58.5 -80t30.5 -109.5t9 -151.5v-29q0 -145 -64.5 -237t-183.5 -125l19 -199h-293l16 197q-121 31 -183 123t-62 241z" />
<glyph unicode="%" horiz-adv-x="1394" d="M20 965v141q0 76 15.5 140.5t49.5 110.5t90 71.5t136 25.5t136.5 -26.5t92 -72.5t52 -109.5t16.5 -139.5v-141q0 -76 -16.5 -140.5t-52 -110.5t-92 -73t-136.5 -27t-136 26t-90 73t-49.5 111.5t-15.5 140.5zM276 893q0 -66 39 -66q37 0 37 66v285q0 63 -37 63 q-39 0 -39 -63v-285zM297 0l614 1434h185l-615 -1434h-184zM784 330v141q0 76 15.5 140.5t49.5 110.5t90 71.5t136 25.5t136.5 -26.5t92 -72.5t52 -109.5t16.5 -139.5v-141q0 -76 -16.5 -140.5t-52 -110.5t-92 -72.5t-136.5 -26.5t-136 25.5t-90 72.5t-49.5 111.5 t-15.5 140.5zM1040 258q0 -66 39 -65q37 0 37 65v285q0 66 -37 65q-39 0 -39 -65v-285z" />
<glyph unicode="&#x26;" horiz-adv-x="862" d="M23 358v39q0 63 8 118.5t31.5 97.5t65.5 67t110 27v22q-68 2 -110 26.5t-65.5 66.5t-31.5 97.5t-8 118.5v41q0 182 95 278.5t275 96.5q182 0 281.5 -97t99.5 -278v-73h-328v96q0 68 -47 67q-49 0 -49 -67v-215q0 -27 11.5 -43.5t37.5 -16.5h47v125h328v-125h68v-219h-68 v-608h-225v129h-23q-18 -72 -75.5 -110.5t-139.5 -38.5q-57 0 -110.5 22.5t-92 68.5t-62 117.5t-23.5 169.5zM350 334q0 -70 45 -70q23 0 37 22.5t14 61.5v260h-47q-27 0 -38 -16.5t-11 -42.5v-215z" />
<glyph unicode="'" horiz-adv-x="290" d="M27 1321v154h239v-154l-20 -440h-199z" />
<glyph unicode="(" horiz-adv-x="466" d="M27 580q0 213 34.5 439t106.5 492l274 -36q-23 -135 -39 -255t-27 -228.5t-16.5 -211t-5.5 -200.5q0 -100 5.5 -202t16.5 -211.5t27.5 -229t38.5 -254.5l-274 -37q-72 266 -106.5 492.5t-34.5 441.5z" />
<glyph unicode=")" horiz-adv-x="466" d="M25 -318q23 135 39 255t27 228.5t16.5 211t5.5 200.5q0 100 -5.5 202t-16.5 211.5t-27.5 229t-38.5 254.5l274 37q72 -266 106.5 -492.5t34.5 -441.5q0 -213 -34.5 -439t-106.5 -492z" />
<glyph unicode="*" horiz-adv-x="806" d="M27 1145l73 227l222 -110l-37 243h239l-37 -243l220 110l73 -227l-241 -41l172 -174l-195 -142l-113 218l-112 -218l-195 142l172 174z" />
<glyph unicode="+" horiz-adv-x="886" d="M27 575v238h290v299h256v-299h289v-238h-289v-299h-256v299h-290z" />
<glyph unicode="," horiz-adv-x="370" d="M-12 -203l71 525h287l-164 -525h-194z" />
<glyph unicode="-" horiz-adv-x="540" d="M25 553v285h491v-285h-491z" />
<glyph unicode="." horiz-adv-x="370" d="M25 160q0 168 161 168q78 0 119 -44t41 -126q0 -168 -160 -168q-161 0 -161 170z" />
<glyph unicode="/" horiz-adv-x="516" d="M18 -164l189 1659h291l-187 -1659h-293z" />
<glyph unicode="0" horiz-adv-x="796" d="M23 358v719q0 188 97 282.5t273 94.5q178 0 279.5 -95t101.5 -282v-719q0 -186 -101.5 -282t-279.5 -96q-176 0 -273 95t-97 283zM350 332q0 -37 14.5 -52.5t32.5 -15.5q20 0 34.5 15.5t14.5 52.5v770q0 39 -14 53t-35 14q-18 0 -32.5 -14t-14.5 -53v-770z" />
<glyph unicode="1" horiz-adv-x="481" d="M25 1149v285h426v-1434h-328v1130l-10 19h-88z" />
<glyph unicode="2" horiz-adv-x="796" d="M25 0v283q0 92 10 154.5t32.5 108.5t60.5 78.5t93 65.5l47 27q59 35 94 57.5t53.5 44t23.5 45t5 60.5v178q0 70 -45 69q-47 0 -47 -69v-256h-327v233q0 180 99 277.5t279 97.5t274.5 -95t94.5 -280v-22q0 -180 -44 -315.5t-153 -198.5l-57 -31q-55 -33 -88 -54.5 t-50.5 -40t-22.5 -35.5t-5 -42v-27h418v-313h-745z" />
<glyph unicode="3" horiz-adv-x="796" d="M23 356v136h327v-160q0 -68 49 -68q47 0 47 68v102q0 45 -4 76t-17 49.5t-38 25.5t-65 7h-39v248h39q41 0 65.5 8t37.5 26.5t17 49t4 75.5v103q0 68 -47 67q-49 0 -49 -67v-160h-327v135q0 180 99 278.5t281 98.5q180 0 275.5 -95t95.5 -282v-20q0 -82 -17.5 -142.5 t-46 -100.5t-64.5 -60.5t-73 -24.5v-22q37 -2 73 -22.5t64.5 -61.5t46 -102.5t17.5 -143.5v-21q0 -186 -95 -281t-276 -95q-182 0 -281 98t-99 278z" />
<glyph unicode="4" horiz-adv-x="786" d="M25 385v1049h327v-764h82v764h328v-1434h-328v385h-409z" />
<glyph unicode="5" horiz-adv-x="794" d="M23 356v213h327v-237q0 -68 47 -68t47 68v430q0 35 -13 50t-30 15q-16 0 -29.5 -13t-19.5 -38v-153h-327v811h706v-285h-379v-152h8q47 33 95.5 48.5t91.5 15.5q106 0 165.5 -77t59.5 -196v-432q0 -184 -94 -280t-275 -96q-182 0 -281 98t-99 278z" />
<glyph unicode="6" horiz-adv-x="796" d="M23 358v719q0 188 97 282.5t271 94.5q178 0 279.5 -95t101.5 -282v-162h-328v187q0 39 -14 53t-33 14q-20 0 -33.5 -14t-13.5 -55v-283h23q27 35 70.5 50.5t86.5 15.5q49 0 93.5 -17.5t78 -52.5t53 -88t19.5 -127v-240q0 -186 -101.5 -282t-281.5 -96q-174 0 -271 94 t-97 284zM350 332q0 -37 13.5 -52.5t33.5 -15.5t34.5 15.5t14.5 52.5v178q0 39 -13 53.5t-34 14.5q-23 0 -36 -14.5t-13 -53.5v-178z" />
<glyph unicode="7" horiz-adv-x="708" d="M25 1149v285h659v-285l-258 -1149h-336l254 1133l-12 16h-307z" />
<glyph unicode="8" horiz-adv-x="798" d="M23 358v48q0 166 50 250.5t122 88.5v23q-74 4 -122 81t-48 204v43q0 174 82.5 266t285.5 92q207 0 295 -94t88 -264v-43q0 -63 -16.5 -115.5t-42 -89.5t-59 -58.5t-70.5 -23.5v-23q37 -2 71.5 -21.5t60 -61.5t42 -104t16.5 -150v-48q0 -186 -89 -282t-296 -96 q-203 0 -286.5 96t-83.5 282zM350 332q0 -37 15.5 -52.5t35.5 -15.5q18 0 34 15.5t16 52.5v213q0 70 -50 69q-51 0 -51 -69v-213zM352 965q0 -35 14.5 -51.5t34.5 -16.5q18 0 33 16.5t15 51.5v137q0 39 -14.5 53t-33.5 14q-20 0 -34.5 -14t-14.5 -53v-137z" />
<glyph unicode="9" horiz-adv-x="796" d="M23 836v239q0 186 101 282.5t279 96.5q174 0 271.5 -94t97.5 -285v-719q0 -188 -97 -282t-272 -94q-176 0 -277 95t-101 281v162h327v-186q0 -39 14.5 -53.5t32.5 -14.5t31.5 14.5t13.5 55.5v282h-22q-27 -35 -70 -50t-86 -15q-49 0 -93 17.5t-78 52t-53 88t-19 127.5z M350 924q0 -39 13.5 -53.5t33.5 -14.5t34.5 14.5t14.5 53.5v178q0 37 -14 52t-35 15q-18 0 -32.5 -15t-14.5 -52v-178z" />
<glyph unicode=":" horiz-adv-x="370" d="M25 160q0 168 161 168q78 0 119 -44t41 -126q0 -168 -160 -168q-161 0 -161 170zM25 889q0 168 161 168q78 0 119 -44t41 -126q0 -168 -160 -168q-161 0 -161 170z" />
<glyph unicode=";" horiz-adv-x="370" d="M-12 -203l71 525h287l-164 -525h-194zM25 889q0 168 161 168q78 0 119 -44t41 -126q0 -168 -160 -168q-161 0 -161 170z" />
<glyph unicode="&#x3c;" horiz-adv-x="636" d="M25 430v221l585 223v-292l-395 -27v-23l395 -28v-293z" />
<glyph unicode="=" horiz-adv-x="833" d="M25 354v238h782v-238h-782zM25 795v237h782v-237h-782z" />
<glyph unicode="&#x3e;" horiz-adv-x="636" d="M25 211v292l395 27v23l-395 28v293l585 -219v-221z" />
<glyph unicode="?" horiz-adv-x="800" d="M27 872v205q0 180 99 278.5t282 98.5q178 0 273 -95t95 -282v-20q0 -82 -13 -142.5t-33.5 -105.5t-46.5 -79t-50 -64l-2 -2q-20 -23 -38 -45.5t-32 -49t-22.5 -58.5t-8.5 -73v-86h-309v68q0 78 12.5 132t31 94t42 68.5t45.5 53.5l2 2q18 20 36 39.5t31 45.5t20.5 59.5 t7.5 80.5v107q0 68 -48 67q-47 0 -47 -67v-230h-327zM215 160q0 168 160 168q78 0 119 -44t41 -126q0 -168 -160 -168t-160 170z" />
<glyph unicode="@" horiz-adv-x="1345" d="M23 264v621q0 102 49 186t136 144.5t205.5 94t260.5 33.5q139 0 258 -33.5t206 -94t136 -144.5t49 -186v-627q0 -125 -86 -201.5t-225 -76.5q-59 0 -110.5 15t-89.5 41.5t-59.5 63.5t-21.5 80v13h-20q-16 -100 -60.5 -156.5t-109.5 -56.5q-80 0 -123 83.5t-43 239.5v477 q0 98 48 162t122 64q59 0 103 -45.5t63 -120.5h20v153h238v-784q0 -20 12 -31.5t29 -11.5q16 0 28.5 11t12.5 32v629q0 133 -93.5 191t-285.5 58q-193 0 -285 -58t-92 -191v-564q0 -113 20.5 -186.5t69.5 -115.5t131 -58t205 -16v-256q-362 0 -530 147.5t-168 474.5z M649 328q0 -25 11.5 -40.5t27.5 -15.5q27 0 43 37v416q-16 35 -43 35q-39 0 -39 -51v-381z" />
<glyph unicode="A" horiz-adv-x="778" d="M8 0l129 1436h510l123 -1436h-328l-16 326h-74l-16 -326h-328zM365 610h47l-13 258h-20z" />
<glyph unicode="B" horiz-adv-x="804" d="M25 0v1434h362q182 0 280.5 -90.5t98.5 -262.5v-10q0 -80 -18.5 -139.5t-48 -101.5t-66.5 -63.5t-74 -23.5v-22q35 -2 76 -25.5t75.5 -68.5t57.5 -107.5t23 -140.5v-25q0 -168 -106.5 -261t-295.5 -93h-364zM352 285h35q33 0 45 14t12 55v166q0 39 -12 54.5t-47 15.5h-33 v-305zM352 874h31q33 0 44 15.5t11 54.5v137q0 39 -11 54.5t-44 15.5h-31v-277z" />
<glyph unicode="C" horiz-adv-x="796" d="M23 356v721q0 188 97 281.5t273 93.5q178 0 279.5 -95t101.5 -280v-323h-328v346q0 39 -14 54t-33 15q-20 0 -34.5 -15t-14.5 -54v-768q0 -37 14.5 -52.5t34.5 -15.5q18 0 32.5 15.5t14.5 52.5v346h328v-322q0 -186 -101.5 -281t-279.5 -95q-176 0 -273 94t-97 282z" />
<glyph unicode="D" horiz-adv-x="794" d="M25 0v1434h368q176 0 277.5 -87t101.5 -272v-717q0 -184 -101.5 -271t-277.5 -87h-368zM354 285h37q27 0 40 13t13 54v729q0 41 -13 54.5t-40 13.5h-37v-864z" />
<glyph unicode="E" horiz-adv-x="571" d="M25 0v1434h528v-285h-201v-254h197v-285h-197v-325h203v-285h-530z" />
<glyph unicode="F" horiz-adv-x="561" d="M25 0v1434h528v-285h-201v-291h189v-285h-189v-573h-327z" />
<glyph unicode="G" horiz-adv-x="796" d="M23 358v721q0 188 97 281.5t273 93.5q178 0 279.5 -95t101.5 -280v-231h-328v254q0 39 -14 54t-33 15q-20 0 -34.5 -15t-14.5 -54v-768q0 -35 13.5 -52.5t31.5 -17.5q20 0 35.5 20.5t15.5 63.5v232h-59v213h387v-793h-223v129h-23q-20 -72 -82.5 -110.5t-134.5 -38.5 q-51 0 -102 21.5t-93 67.5t-67.5 117.5t-25.5 171.5z" />
<glyph unicode="H" horiz-adv-x="788" d="M25 0v1436h327v-557h88v557h326v-1436h-326v594h-88v-594h-327z" />
<glyph unicode="I" horiz-adv-x="374" d="M25 0v1434h327v-1434h-327z" />
<glyph unicode="J" horiz-adv-x="780" d="M14 358v310h328v-336q0 -37 13.5 -52.5t31.5 -15.5t30.5 15.5t12.5 52.5v1102h328v-1076q0 -186 -99.5 -282t-279.5 -96q-176 0 -270.5 94t-94.5 284z" />
<glyph unicode="K" horiz-adv-x="796" d="M27 2v1432h327v-576h27l55 576h346l-133 -717l144 -715h-349l-63 573h-27v-573h-327z" />
<glyph unicode="L" horiz-adv-x="559" d="M25 0v1434h327v-1149h201v-285h-528z" />
<glyph unicode="M" horiz-adv-x="993" d="M25 0v1434h421l41 -865h23l41 865h420v-1434h-301l37 858h-23l-84 -858h-205l-86 858h-22l39 -858h-301z" />
<glyph unicode="N" horiz-adv-x="821" d="M23 0v1434h356l153 -865h19l-80 865h328v-1434h-357l-145 858h-18l71 -858h-327z" />
<glyph unicode="O" horiz-adv-x="796" d="M23 358v719q0 188 97 282.5t273 94.5q178 0 279.5 -95t101.5 -282v-719q0 -186 -101.5 -282t-279.5 -96q-176 0 -273 95t-97 283zM350 332q0 -37 14.5 -52.5t32.5 -15.5q20 0 34.5 15.5t14.5 52.5v770q0 39 -14 53t-35 14q-18 0 -32.5 -14t-14.5 -53v-770z" />
<glyph unicode="P" horiz-adv-x="790" d="M25 0v1434h366q180 0 278.5 -122t98.5 -386v-4q0 -135 -23.5 -227.5t-70.5 -149t-119 -81t-168 -24.5h-35v-440h-327zM352 725h35q33 0 44 17.5t11 58.5v268q0 45 -11 62.5t-44 17.5h-35v-424z" />
<glyph unicode="Q" horiz-adv-x="796" d="M23 358v721q0 188 97 281.5t273 93.5q178 0 279.5 -95t101.5 -280v-721q0 -154 -70.5 -246t-197.5 -120v-27q0 -16 5 -23.5t24 -7.5h161v-237h-137q-70 0 -122 10t-85 37t-49 73t-16 115v58q-127 27 -195.5 118t-68.5 250zM350 334q0 -39 14.5 -54.5t34.5 -15.5 q18 0 32.5 15.5t14.5 54.5v768q0 39 -14 54t-33 15q-20 0 -34.5 -15t-14.5 -54v-768z" />
<glyph unicode="R" horiz-adv-x="794" d="M25 0v1436h366q180 0 278.5 -95.5t98.5 -289.5v-9q0 -88 -19.5 -154.5t-50 -110.5t-67.5 -67.5t-72 -25.5v-22q35 -2 72 -28t67.5 -71t50 -109.5t19.5 -144.5v-16q0 -88 3 -157.5t17 -135.5h-325q-14 66 -17.5 138.5t-3.5 156.5v166q0 39 -12 54t-43 15h-35v-530h-327z M352 815h35q31 0 43 16.5t12 55.5v194q0 37 -12 53.5t-43 16.5h-35v-336z" />
<glyph unicode="S" horiz-adv-x="796" d="M23 358v142h327v-166q0 -70 49 -70q47 0 47 68v110q0 29 -4 47.5t-20 36t-47 37t-86 47.5l-72 35q-55 29 -92 63.5t-59.5 84t-31.5 114t-9 150.5v20q0 186 94 281.5t274 95.5t279.5 -98.5t99.5 -278.5v-143h-328v168q0 67 -44 67h-1q-47 0 -47 -67v-107q0 -27 4 -46 t21.5 -37.5t51.5 -40t93 -52.5l62 -28q55 -29 92 -63t58.5 -80t30.5 -109.5t9 -151.5v-29q0 -182 -99.5 -280t-281.5 -98q-180 0 -275 96t-95 282z" />
<glyph unicode="T" horiz-adv-x="741" d="M10 1149v285h723v-285h-196v-1149h-328v1149h-199z" />
<glyph unicode="U" horiz-adv-x="790" d="M23 358v1076h327v-1102q0 -37 13.5 -52.5t31.5 -15.5t31.5 15.5t13.5 52.5v1102h328v-1076q0 -186 -100.5 -282t-278.5 -96q-176 0 -271 95t-95 283z" />
<glyph unicode="V" horiz-adv-x="778" d="M8 1434h328l41 -1072h22l43 1072h328l-129 -1434h-510z" />
<glyph unicode="W" horiz-adv-x="1046" d="M8 1434h328l12 -867h23l45 867h213l47 -867h22l13 867h327l-116 -1434h-365l-27 604h-22l-27 -604h-362z" />
<glyph unicode="X" horiz-adv-x="802" d="M8 0l103 719l-101 715h342l37 -566h25l37 566h340l-101 -715l105 -719h-344l-39 580h-23l-39 -580h-342z" />
<glyph unicode="Y" horiz-adv-x="761" d="M8 1434h328l35 -588h22l33 588h328l-211 -1041v-393h-328v393z" />
<glyph unicode="Z" horiz-adv-x="698" d="M12 0v285l318 848l-15 16h-282v285h633v-287l-318 -846l12 -16h328v-285h-676z" />
<glyph unicode="[" horiz-adv-x="509" d="M25 -317v1792h460v-285h-133v-1223h133v-284h-460z" />
<glyph unicode="\" horiz-adv-x="522" d="M25 1495h290l189 -1659h-293z" />
<glyph unicode="]" horiz-adv-x="509" d="M25 -33h133v1223h-133v284h460v-1792h-460v285z" />
<glyph unicode="^" horiz-adv-x="587" d="M27 963l127 471h282l127 -471h-237l-21 376h-22l-19 -376h-237z" />
<glyph unicode="_" horiz-adv-x="643" d="M25 0h593v-250h-593v250z" />
<glyph unicode="`" horiz-adv-x="354" d="M25 1434h237l68 -281h-203z" />
<glyph unicode="a" d="M20 195v151q0 96 66 156.5t168 60.5h160v170q0 66 -41 66t-41 -66v-131h-309v113q0 164 92 257t254 93q164 0 259 -94t95 -256v-715h-309v88h-8q-77 -108 -189 -108h-2q-86 0 -140.5 59t-54.5 156zM330 266q0 -47 37 -47q31 0 47 37v156h-31q-53 0 -53 -45v-101z" />
<glyph unicode="b" d="M23 0v1475h309v-531l22 -2q59 123 181 123q86 0 138 -64.5t52 -193.5v-539q0 -133 -53.5 -210.5t-145.5 -77.5q-53 0 -99 30.5t-73 91.5h-22v-102h-309zM332 289q14 -37 45 -37q16 0 27.5 15.5t11.5 37.5v438q0 23 -10.5 36.5t-26.5 13.5q-33 0 -47 -37v-467z" />
<glyph unicode="c" d="M20 328v387q0 164 92.5 257t256.5 93t259 -94t95 -256v-160h-309v178q0 66 -43 66q-41 0 -41 -66v-422q0 -65 40 -65h1q43 0 43 65v178h309v-161q0 -160 -95.5 -254t-258.5 -94q-164 0 -256.5 93t-92.5 255z" />
<glyph unicode="d" d="M20 295v520q0 129 59.5 189.5t133.5 60.5q55 0 105.5 -30.5t72.5 -90.5h23v531h309v-1475h-309v102h-23q-31 -59 -76 -90.5t-92 -31.5q-39 0 -75.5 20t-64.5 60t-45.5 98.5t-17.5 136.5zM330 307q0 -23 11 -38t28 -15q31 0 45 37v469q-12 33 -45 33q-16 0 -27.5 -13.5 t-11.5 -36.5v-436z" />
<glyph unicode="e" d="M20 330v387q0 162 92.5 255t254.5 93q164 0 260 -94t96 -254v-268h-393v-138q0 -65 40 -65h1q43 0 43 65v86h309v-67q0 -162 -96.5 -256t-259.5 -94q-162 0 -254.5 93t-92.5 257zM330 614h84v119q0 66 -43 66q-41 0 -41 -66v-119z" />
<glyph unicode="f" horiz-adv-x="550" d="M0 778v266h88v76q0 100 21.5 168t60.5 109t95.5 58.5t123.5 17.5q41 0 84 -5.5t90 -13.5l-2 -266q-16 4 -31.5 6t-31.5 2q-41 0 -71 -20.5t-30 -73.5v-58h164v-266h-164v-778h-309v778h-88z" />
<glyph unicode="g" d="M20 268v520q0 129 51.5 203t143.5 74q55 0 101 -30.5t75 -94.5h23v104h309v-1161q0 -150 -91 -231.5t-257 -81.5t-259 83t-93 230v58h309v-41q0 -63 41 -64q41 0 41 68v200h-23q-29 -61 -74 -92.5t-98 -31.5q-92 0 -145.5 77.5t-53.5 210.5zM330 311q0 -27 10 -43t27 -16 q31 0 47 43v455q-8 18 -20.5 30.5t-26.5 12.5q-16 0 -26.5 -15.5t-10.5 -38.5v-428z" />
<glyph unicode="h" d="M23 0v1475h309v-535h22q57 125 176 125q80 0 137.5 -65.5t57.5 -211.5v-788h-309v741q0 51 -37 52q-27 0 -47 -39v-754h-309z" />
<glyph unicode="i" horiz-adv-x="364" d="M10 1274q0 78 45 114.5t123 36.5t126 -36.5t48 -114.5t-47 -115t-125 -37t-124 37t-46 115zM27 0v1044h311v-1044h-311z" />
<glyph unicode="j" horiz-adv-x="362" d="M-88 -145q10 -2 18.5 -3.5t16.5 -1.5q35 0 56.5 16.5t21.5 55.5v1125h309v-1123q0 -180 -78 -267t-211 -87q-63 0 -133 18v267zM8 1276q0 78 45 114.5t123 36.5t126 -36.5t48 -114.5t-47 -115t-125 -37t-124 37t-46 115z" />
<glyph unicode="k" horiz-adv-x="718" d="M23 0v1475h309v-779h22l64 348h303l-125 -495l137 -549h-303l-76 395h-22v-395h-309z" />
<glyph unicode="l" horiz-adv-x="356" d="M25 0v1475h309v-1475h-309z" />
<glyph unicode="m" horiz-adv-x="1130" d="M23 0v1044h309v-104h20q63 125 170 125q57 0 100.5 -33t67.5 -92h21q31 61 81 93t105 32q41 0 79 -17.5t67.5 -52t48 -87t18.5 -120.5v-788h-309v743q0 23 -9.5 36.5t-25.5 13.5q-20 0 -45 -29v-764h-309v743q0 23 -9.5 36.5t-25.5 13.5q-25 0 -45 -37v-756h-309z" />
<glyph unicode="n" d="M23 0v1044h311v-104h20q61 125 176 125q80 0 137.5 -65.5t57.5 -211.5v-788h-309v743q0 51 -37 52q-29 0 -45 -37v-758h-311z" />
<glyph unicode="o" d="M20 328v387q0 154 88.5 252t260.5 98q86 0 152.5 -26.5t110.5 -72.5t67.5 -110.5t23.5 -140.5v-387q0 -76 -23.5 -139.5t-67.5 -109.5t-110.5 -72.5t-152.5 -26.5t-151.5 25.5t-108.5 71.5t-66 110.5t-23 140.5zM330 311q0 -65 42 -65h1q41 0 41 65v422q0 66 -41 66 q-43 0 -43 -66v-422z" />
<glyph unicode="p" d="M23 -412v1456h309v-122h22q49 86 91 114.5t83 28.5q92 0 144.5 -80t52.5 -213v-506q0 -131 -50 -208.5t-134 -77.5q-51 0 -101.5 34.5t-85.5 108.5h-22v-535h-309zM332 307q16 -41 47 -41q16 0 26.5 16.5t10.5 39.5v401q0 23 -10.5 37t-26.5 14q-31 0 -47 -41v-426z" />
<glyph unicode="q" d="M20 266v506q0 133 52.5 213t144.5 80q41 0 82 -27.5t92 -115.5h23v122h309v-1456h-309v535h-23q-35 -74 -85 -108.5t-101 -34.5q-84 0 -134.5 77.5t-50.5 208.5zM330 322q0 -23 10 -39.5t27 -16.5q31 0 47 41v426q-16 41 -47 41q-16 0 -26.5 -14.5t-10.5 -36.5v-401z" />
<glyph unicode="r" horiz-adv-x="575" d="M23 0v1044h309v-145h8q23 72 72 119t123 47h13t15 -2v-307q-14 2 -27.5 3t-27.5 1q-92 0 -134 -51.5t-42 -149.5v-559h-309z" />
<glyph unicode="s" d="M20 315v47h310v-47q0 -63 39 -63q45 0 45 57v4q0 37 -15.5 54.5t-66.5 38.5l-142 61q-92 39 -129.5 97.5t-37.5 162.5v29q0 61 22.5 117.5t66.5 99.5t108.5 67.5t148.5 24.5q86 0 151.5 -25.5t110.5 -70.5t68.5 -106.5t23.5 -131.5v-49h-311v51q0 63 -43 64 q-39 0 -39 -60v-2q0 -37 14 -54t62 -34l139 -65q92 -41 135 -99.5t43 -163.5v-30q0 -61 -23.5 -116.5t-69.5 -98.5t-112.5 -68.5t-152.5 -25.5q-84 0 -148.5 25.5t-107.5 70.5t-66 106.5t-23 132.5z" />
<glyph unicode="t" horiz-adv-x="569" d="M2 778v266h88v226l309 18v-244h160v-266h-160v-430q0 -53 30 -72.5t69 -19.5q35 0 61 8l2 -266q-92 -18 -172 -18q-68 0 -123 17t-94 58t-60.5 108.5t-21.5 168.5v446h-88z" />
<glyph unicode="u" d="M20 256v788h310v-751q0 -51 37 -51q29 0 47 39v763h309v-1044h-309v104h-23q-61 -124 -174 -124h-2q-80 0 -137.5 65.5t-57.5 210.5z" />
<glyph unicode="v" horiz-adv-x="724" d="M10 1044h309l31 -679h23l33 679h309l-133 -1044h-439z" />
<glyph unicode="w" horiz-adv-x="1011" d="M8 1044h309l13 -608h22l47 608h213l47 -608h23l10 608h309l-129 -1044h-327l-29 412h-20l-29 -412h-328z" />
<glyph unicode="x" horiz-adv-x="737" d="M2 0l86 524l-84 520h320l32 -409h23l33 409h319l-84 -522l86 -522h-321l-35 420h-21l-34 -420h-320z" />
<glyph unicode="y" d="M23 256v788h309v-751q0 -51 37 -51q29 0 47 39v763h309v-1161q0 -150 -91 -231.5t-257 -81.5t-259 83t-93 230v58h309v-41q0 -63 41 -64q41 0 41 68v200h-23q-61 -124 -174 -124h-2q-80 0 -137 65.5t-57 210.5z" />
<glyph unicode="z" horiz-adv-x="645" d="M18 0v264l252 494l-8 20h-231v266h579v-264l-252 -495l13 -19h256v-266h-609z" />
<glyph unicode="{" horiz-adv-x="700" d="M25 451v256q47 0 74.5 8t43 25.5t20.5 43t5 58.5v307q0 182 89 273t261 91h154v-284h-41q-41 0 -67.5 -7.5t-42 -26.5t-20.5 -55t-5 -93v-207q0 -55 -8.5 -101.5t-29 -79t-56 -51t-89.5 -18.5v-23q53 0 89 -18.5t56.5 -50t29 -77.5t8.5 -102v-208q0 -55 5 -91t20.5 -55.5 t42 -27t67.5 -7.5h41v-284h-154q-172 0 -261 91t-89 273v307q0 35 -5 59.5t-20.5 41t-43 25t-74.5 8.5z" />
<glyph unicode="|" horiz-adv-x="376" d="M25 -317v1792h327v-1792h-327z" />
<glyph unicode="}" horiz-adv-x="700" d="M26 -72h41q41 0 67.5 7.5t42 26.5t20.5 55t5 93v207q0 55 8.5 101.5t29 79t56 51t89.5 18.5v23q-53 0 -89 18.5t-56.5 50t-29 77.5t-8.5 102v208q0 55 -5 91t-20.5 55.5t-42 27t-67.5 7.5h-41v284h154q172 0 261 -91t89 -273v-307q0 -35 5 -59.5t20.5 -41t43 -25 t74.5 -8.5v-256q-47 0 -74.5 -8t-43 -25.5t-20.5 -43t-5 -58.5v-307q0 -182 -89 -273t-261 -91h-154v284z" />
<glyph unicode="~" horiz-adv-x="714" d="M27 555v14q0 274 174 275q41 0 84 -12.5t86 -32.5l12 -4q37 -16 68.5 -26.5t58.5 -10.5q59 0 59 67v13h119v-13q0 -150 -41 -213t-127 -63q-43 0 -87 13t-89 34l-12 6q-35 16 -65.5 26.5t-57.5 10.5q-59 0 -59 -72v-12h-123z" />
<glyph unicode="&#xa1;" horiz-adv-x="397" d="M35 -205l37 901h254l36 -901v-205h-327v205zM39 907q0 168 160 168q78 0 118.5 -44t40.5 -126q0 -168 -159 -168q-160 0 -160 170z" />
<glyph unicode="&#xa2;" d="M20 328v387q0 129 58.5 215t165.5 119l-17 198h293l-16 -203q104 -35 161.5 -119.5t57.5 -209.5v-160h-309v178q0 66 -43 66q-41 0 -41 -66v-422q0 -66 41 -65q43 0 43 65v178h309v-161q0 -123 -57.5 -208t-161.5 -120l16 -205h-293l17 201q-106 33 -165 118t-59 214z " />
<glyph unicode="&#xa3;" horiz-adv-x="825" d="M23 0v285q31 37 46 68.5t19 70.5h-65v231h69v535q0 129 90 196.5t260 67.5q172 0 265.5 -98.5t93.5 -278.5v-321h-309v346q0 68 -46 67q-45 0 -45 -55v-459h330v-231h-334q-4 -39 -14 -72t-29 -67h447v-285h-778z" />
<glyph unicode="&#xa4;" horiz-adv-x="1019" d="M25 0v1434h970v-1434h-970zM127 170l332 547l-332 547v-1094zM188 102h643l-321 531zM188 1331l322 -530l321 530h-643zM561 717l332 -547v1094z" />
<glyph unicode="&#xa5;" horiz-adv-x="761" d="M8 1434h328l35 -588h22l33 588h328l-148 -719h142v-203h-183l-6 -33h189v-203h-205v-276h-328l-2 276h-199v203h183l-7 33h-176v203h138z" />
<glyph unicode="&#xa6;" horiz-adv-x="376" d="M25 -317v831h327v-831h-327zM25 637v838h327v-838h-327z" />
<glyph unicode="&#xa7;" horiz-adv-x="755" d="M23 -10h309v-82q0 -68 45 -68q47 0 47 64v110q0 45 -16.5 62.5t-69.5 38.5l-141 61q-92 39 -131 99.5t-39 166.5v138q0 121 84 202q-45 37 -64.5 89.5t-19.5 132.5v135q0 66 22.5 123t66.5 100t109.5 67.5t149.5 24.5q86 0 152.5 -25.5t111.5 -71.5t68.5 -107.5 t23.5 -133.5v-84h-309v86q0 68 -45 68q-43 0 -43 -64v-110q0 -43 14 -61.5t62 -35.5l139 -65q92 -41 137 -101.5t45 -166.5v-142q0 -61 -20.5 -113.5t-65.5 -93.5q43 -35 64.5 -85t21.5 -128v-139q0 -61 -23.5 -118.5t-69.5 -100.5t-112.5 -68.5t-152.5 -25.5t-151.5 25.5 t-109.5 71.5t-66.5 107.5t-22.5 135.5v82zM334 451q0 -23 4 -39.5t18 -28.5q43 16 55.5 37.5t12.5 42.5v112q0 43 -23 64q-45 -10 -56 -29.5t-11 -46.5v-112z" />
<glyph unicode="&#xa8;" horiz-adv-x="610" d="M25 1292q0 66 27.5 103t105.5 37t106.5 -38t28.5 -102q0 -63 -28.5 -100t-104.5 -37q-78 0 -106.5 37t-28.5 100zM317 1292q0 66 28 103t106 37t106.5 -38t28.5 -102q0 -63 -29 -100t-104 -37q-78 0 -107 37t-29 100z" />
<glyph unicode="&#xa9;" horiz-adv-x="1298" d="M27 639v170q0 330 145 487.5t465 157.5q334 0 485.5 -166t151.5 -479v-182q0 -158 -36 -279t-111.5 -203t-195.5 -123.5t-290 -41.5q-168 0 -284.5 40.5t-190.5 123.5t-106.5 206t-32.5 289zM256 604q0 -233 94 -332.5t299 -99.5q207 0 301 99.5t94 332.5v227 q0 231 -94 330t-299 99t-300 -98.5t-95 -330.5v-227zM315 578v276q0 82 14.5 146.5t51.5 110.5t102.5 70.5t167.5 24.5t168 -24.5t102.5 -70.5t50 -111.5t13.5 -145.5v-104h-293v120q0 66 -41 66q-43 0 -43 -66v-311q0 -63 43 -63q41 0 41 63v127h293v-108 q0 -80 -16.5 -145.5t-55.5 -112t-103.5 -71t-160.5 -24.5q-94 0 -158.5 24.5t-103.5 71t-55.5 111t-16.5 146.5z" />
<glyph unicode="&#xaa;" horiz-adv-x="479" d="M25 954v90q0 57 40.5 94.5t100.5 37.5h100v100q0 37 -26 37q-29 0 -29 -37v-78h-184v68q0 98 56 153.5t155 55.5q100 0 158.5 -55.5t58.5 -153.5v-430h-189v53h-16q-49 -66 -119 -66q-53 0 -79.5 37t-26.5 94zM209 995q0 -25 24 -24q23 0 33 20v92h-26q-31 0 -31 -26v-62 z" />
<glyph unicode="&#xab;" horiz-adv-x="1230" d="M25 430v221l587 273l2 -273l588 273l4 -291l-243 -88v-4l241 -88l-2 -293l-588 270l-2 -270zM373 541l241 -88v180l-241 -88v-4z" />
<glyph unicode="&#xac;" horiz-adv-x="1019" d="M25 0v1434h970v-1434h-970zM127 170l332 547l-332 547v-1094zM188 102h643l-321 531zM188 1331l322 -530l321 530h-643zM561 717l332 -547v1094z" />
<glyph unicode="&#xad;" horiz-adv-x="540" d="M25 553v285h491v-285h-491z" />
<glyph unicode="&#xae;" horiz-adv-x="1298" d="M27 639v170q0 330 145 487.5t465 157.5q334 0 485.5 -166t151.5 -479v-180q0 -158 -36 -280t-112.5 -204t-196.5 -123.5t-290 -41.5q-166 0 -282.5 40.5t-190.5 123.5t-106.5 206t-32.5 289zM256 604q0 -233 93 -332.5t300 -99.5t301 99.5t94 332.5v230 q0 115 -23.5 195.5t-71.5 131.5t-122.5 75t-177.5 24q-205 0 -299 -97.5t-94 -328.5v-230zM432 283v860h221q109 0 168.5 -56.5t59.5 -173.5v-6q0 -53 -11.5 -92t-30 -64.5t-41 -39t-42.5 -15.5v-20q43 -4 84 -57.5t41 -149.5v-12q0 -53 2 -94t10 -80h-195q-8 41 -10 84 t-2 92v100q0 41 -35 41h-26v-317h-193zM625 772h26q35 0 35 41v117q0 41 -35 41h-26v-199z" />
<glyph unicode="&#xaf;" horiz-adv-x="493" d="M25 1176v237h442v-237h-442z" />
<glyph unicode="&#xb0;" horiz-adv-x="430" d="M27 1055v248q0 86 48 139t144 53q98 0 148.5 -54.5t50.5 -137.5v-248q0 -84 -50.5 -139.5t-148.5 -55.5q-96 0 -144 54.5t-48 140.5zM195 1044q0 -14 6 -24t22 -10t21.5 10t5.5 24v267q0 37 -27 37q-29 0 -28 -37v-267z" />
<glyph unicode="&#xb1;" horiz-adv-x="796" d="M25 12v238h745v-238h-745zM25 575v238h245v227h256v-227h244v-238h-244v-227h-256v227h-245z" />
<glyph unicode="&#xb2;" horiz-adv-x="460" d="M25 1210v84q0 72 54 126.5t152 54.5t150.5 -54.5t52.5 -126.5v-28q0 -59 -14 -95t-37 -56.5t-48.5 -31t-49.5 -16.5l-4 -2q-25 -8 -43.5 -19.5t-18.5 -35.5v-9h215v-157h-403v121q0 68 25.5 103.5t78.5 59.5l12 7q35 16 56.5 28.5t33 23.5t15.5 25.5t4 32.5v29 q0 25 -7 34t-20 9q-14 0 -20 -9.5t-6 -33.5v-64h-178z" />
<glyph unicode="&#xb3;" horiz-adv-x="452" d="M23 1006v57h178v-37q0 -27 26 -27q29 0 29 27v12q0 39 -11.5 52.5t-58.5 13.5h-22v108h22q47 0 58.5 14.5t11.5 53.5v12q0 27 -29 27q-27 0 -26 -27v-37h-178v58q0 82 49 122t157 40q106 0 154.5 -40t48.5 -124v-8q0 -72 -32.5 -102t-73.5 -34v-14q41 -2 73.5 -37 t32.5 -104v-8q0 -82 -48 -121t-153 -39q-109 0 -158.5 40t-49.5 122z" />
<glyph unicode="&#xb4;" horiz-adv-x="354" d="M25 1153l67 281h238l-103 -281h-202z" />
<glyph unicode="&#xb6;" horiz-adv-x="1136" d="M25 930q0 186 21.5 294.5t66.5 164t114.5 71t165.5 15.5h328v-1792h-328v702q-96 0 -165.5 15.5t-114.5 70.5t-66.5 163.5t-21.5 295.5zM784 -317v1792h328v-1792h-328z" />
<glyph unicode="&#xb7;" horiz-adv-x="372" d="M25 766q0 168 161 168q78 0 119 -44t41 -126q0 -168 -160 -168q-161 0 -161 170z" />
<glyph unicode="&#xb8;" horiz-adv-x="442" d="M27 -260q35 -6 65 -6q43 0 73 13t30 34q0 20 -33 31.5t-92 11.5l32 174h123l-10 -98q100 0 151.5 -42t51.5 -96q0 -59 -60.5 -107t-179.5 -48q-31 0 -69.5 4t-81.5 12v117z" />
<glyph unicode="&#xb9;" horiz-adv-x="286" d="M27 1296v158h235v-610h-180v440l-8 12h-47z" />
<glyph unicode="&#xba;" horiz-adv-x="477" d="M25 1032v234q0 92 53 150.5t158 58.5q104 0 159.5 -58.5t55.5 -150.5v-234q0 -92 -55.5 -150.5t-159.5 -58.5t-157.5 58.5t-53.5 150.5zM209 1022q0 -37 29 -37t28 37v252q0 39 -28 39q-29 0 -29 -39v-252z" />
<glyph unicode="&#xbb;" horiz-adv-x="1230" d="M23 452l243 88v4l-241 88l2 293l588 -270l2 270l587 -270v-221l-587 -273l-2 273l-588 -273zM615 452l241 88v4l-241 88v-180z" />
<glyph unicode="&#xbc;" horiz-adv-x="946" d="M27 1296v158h235v-610h-180v440l-8 12h-47zM197 0l225 1475h178l-223 -1475h-180zM529 164v446h178v-287h37v287h178v-610h-178v164h-215z" />
<glyph unicode="&#xbd;" horiz-adv-x="942" d="M27 1296v158h235v-610h-180v440l-8 12h-47zM197 0l225 1475h178l-223 -1475h-180zM504 366v84q0 72 54 126.5t152 54.5t150.5 -54.5t52.5 -126.5v-28q0 -59 -14 -95t-37 -56.5t-48.5 -31t-49.5 -16.5l-4 -2q-25 -8 -43.5 -19.5t-18.5 -35.5v-9h215v-157h-403v121 q0 68 25.5 103.5t78.5 59.5l12 7q35 16 56.5 28.5t33 23.5t15.5 25.5t4 32.5v29q0 25 -7 34t-20 9q-14 0 -20 -9.5t-6 -33.5v-64h-178z" />
<glyph unicode="&#xbe;" horiz-adv-x="1075" d="M27 1006v57h178v-37q0 -27 26 -27q29 0 29 27v12q0 39 -11.5 52.5t-58.5 13.5h-22v108h22q47 0 58.5 14.5t11.5 53.5v12q0 27 -29 27q-27 0 -26 -27v-37h-178v58q0 82 49 122t157 40q106 0 154.5 -40t48.5 -124v-8q0 -72 -32.5 -102t-73.5 -34v-14q41 -2 73.5 -37 t32.5 -104v-8q0 -82 -48 -121t-153 -39q-109 0 -158.5 40t-49.5 122zM330 0l225 1475h178l-223 -1475h-180zM658 164v446h178v-287h37v287h178v-610h-178v164h-215z" />
<glyph unicode="&#xbf;" horiz-adv-x="800" d="M25 -33q0 84 13 143.5t33.5 104.5t46 79t50.5 64l2 2q20 25 37.5 47.5t31 49t21.5 57.5t8 72v106h310v-86q0 -78 -11.5 -133t-30 -95t-42 -67.5t-45.5 -52.5l-3 -2q-18 -20 -35.5 -39.5t-29.5 -46.5t-20.5 -60.5t-8.5 -80.5v-107q0 -68 47 -67q47 0 47 67v230h328v-205 q0 -180 -99.5 -278.5t-281.5 -98.5q-178 0 -273 95t-95 282v20zM254 907q0 168 160 168q78 0 118.5 -44t40.5 -128q0 -80 -40.5 -123t-118.5 -43q-160 0 -160 170z" />
<glyph unicode="&#xc0;" horiz-adv-x="778" d="M8 0l129 1436h510l123 -1436h-328l-16 326h-74l-16 -326h-328zM193 1796h237l68 -281h-203zM365 610h47l-13 258h-20z" />
<glyph unicode="&#xc1;" horiz-adv-x="778" d="M8 0l129 1436h510l123 -1436h-328l-16 326h-74l-16 -326h-328zM281 1515l67 281h238l-103 -281h-202zM365 610h47l-13 258h-20z" />
<glyph unicode="&#xc2;" horiz-adv-x="778" d="M8 0l129 1436h510l123 -1436h-328l-16 326h-74l-16 -326h-328zM189 1515l88 281h223l88 -281h-170l-25 113h-12l-22 -113h-170zM365 610h47l-13 258h-20z" />
<glyph unicode="&#xc3;" horiz-adv-x="778" d="M8 0l129 1436h510l123 -1436h-328l-16 326h-74l-16 -326h-328zM193 1523v17q0 123 26.5 189.5t79.5 66.5q23 0 48.5 -12.5t49.5 -30.5l9 -7q23 -16 40 -25t33 -9q37 0 37 61v16h72v-16q0 -135 -25.5 -196.5t-77.5 -61.5q-27 0 -53 13.5t-51 33.5l-8 6q-20 16 -37.5 25.5 t-32.5 9.5q-35 0 -35 -65v-15h-75zM365 610h47l-13 258h-20z" />
<glyph unicode="&#xc4;" horiz-adv-x="778" d="M8 0l129 1436h510l123 -1436h-328l-16 326h-74l-16 -326h-328zM109 1654q0 66 27.5 103t105.5 37t106.5 -38t28.5 -102q0 -63 -28.5 -100t-104.5 -37q-78 0 -106.5 37t-28.5 100zM365 610h47l-13 258h-20zM401 1654q0 66 28 103t106 37t106.5 -38t28.5 -102 q0 -63 -29 -100t-104 -37q-78 0 -107 37t-29 100z" />
<glyph unicode="&#xc5;" horiz-adv-x="778" d="M8 0l129 1436h510l123 -1436h-328l-16 326h-74l-16 -326h-328zM218 1656q0 76 46 112t126 36t127 -37t47 -111q0 -78 -46 -113.5t-126 -35.5q-82 0 -128 35.5t-46 113.5zM320 1656q0 -57 72 -57q70 0 69 57q0 29 -19.5 42.5t-51.5 13.5q-70 -1 -70 -56zM365 610h47 l-13 258h-20z" />
<glyph unicode="&#xc6;" horiz-adv-x="989" d="M8 0l170 1434h791v-285h-201v-254h197v-285h-197v-325h203v-285h-531v326h-71l-33 -326h-328zM395 610h45v258h-20z" />
<glyph unicode="&#xc7;" horiz-adv-x="796" d="M23 356v721q0 188 97 281.5t273 93.5q178 0 279.5 -95t101.5 -280v-323h-328v346q0 39 -14 54t-33 15q-20 0 -34.5 -15t-14.5 -54v-768q0 -37 14.5 -52.5t34.5 -15.5q18 0 32.5 15.5t14.5 52.5v346h328v-322q0 -186 -101.5 -281t-279.5 -95q-176 0 -273 94t-97 282z M267 -260q35 -6 65 -6q43 0 73 13t30 34q0 20 -33 31.5t-92 11.5l32 174h123l-10 -98q100 0 151.5 -42t51.5 -96q0 -59 -60.5 -107t-179.5 -48q-31 0 -69.5 4t-81.5 12v117z" />
<glyph unicode="&#xc8;" horiz-adv-x="571" d="M25 0v1434h528v-285h-201v-254h197v-285h-197v-325h203v-285h-530zM93 1796h237l68 -281h-203z" />
<glyph unicode="&#xc9;" horiz-adv-x="571" d="M25 0v1434h528v-285h-201v-254h197v-285h-197v-325h203v-285h-530zM181 1515l67 281h238l-103 -281h-202z" />
<glyph unicode="&#xca;" horiz-adv-x="571" d="M25 0v1434h528v-285h-201v-254h197v-285h-197v-325h203v-285h-530zM88 1515l88 281h223l88 -281h-170l-25 113h-12l-22 -113h-170z" />
<glyph unicode="&#xcb;" horiz-adv-x="571" d="M7 1654q0 66 27.5 103t105.5 37t106.5 -38t28.5 -102q0 -63 -28.5 -100t-104.5 -37q-78 0 -106.5 37t-28.5 100zM25 0v1434h528v-285h-201v-254h197v-285h-197v-325h203v-285h-530zM299 1654q0 66 28 103t106 37t106.5 -38t28.5 -102q0 -63 -29 -100t-104 -37 q-78 0 -107 37t-29 100z" />
<glyph unicode="&#xcc;" horiz-adv-x="374" d="M-10 1796h237l68 -281h-203zM25 0v1434h327v-1434h-327z" />
<glyph unicode="&#xcd;" horiz-adv-x="374" d="M25 0v1434h327v-1434h-327zM80 1515l67 281h238l-103 -281h-202z" />
<glyph unicode="&#xce;" horiz-adv-x="374" d="M-12 1515l88 281h223l88 -281h-170l-25 113h-12l-22 -113h-170zM25 0v1434h327v-1434h-327z" />
<glyph unicode="&#xcf;" horiz-adv-x="374" d="M-94 1654q0 66 27.5 103t105.5 37t106.5 -38t28.5 -102q0 -63 -28.5 -100t-104.5 -37q-78 0 -106.5 37t-28.5 100zM25 0v1434h327v-1434h-327zM198 1654q0 66 28 103t106 37t106.5 -38t28.5 -102q0 -63 -29 -100t-104 -37q-78 0 -107 37t-29 100z" />
<glyph unicode="&#xd0;" horiz-adv-x="835" d="M14 606v213h52v615h370q176 0 277.5 -87t101.5 -272v-719q0 -184 -101.5 -270t-277.5 -86h-370v606h-52zM395 283h39q27 0 40 14t13 55v729q0 41 -13 54.5t-42 13.5h-37v-330h41v-213h-41v-323z" />
<glyph unicode="&#xd1;" horiz-adv-x="821" d="M23 0v1434h356l153 -865h19l-80 865h328v-1434h-357l-145 858h-18l71 -858h-327zM211 1523v17q0 123 26.5 189.5t79.5 66.5q23 0 48.5 -12.5t49.5 -30.5l9 -7q23 -16 40 -25t33 -9q37 0 37 61v16h72v-16q0 -135 -25.5 -196.5t-77.5 -61.5q-27 0 -53 13.5t-51 33.5l-8 6 q-20 16 -37.5 25.5t-32.5 9.5q-35 0 -35 -65v-15h-75z" />
<glyph unicode="&#xd2;" horiz-adv-x="796" d="M23 358v719q0 188 97 282.5t273 94.5q178 0 279.5 -95t101.5 -282v-719q0 -186 -101.5 -282t-279.5 -96q-176 0 -273 95t-97 283zM201 1796h237l68 -281h-203zM350 332q0 -37 14.5 -52.5t32.5 -15.5q20 0 34.5 15.5t14.5 52.5v770q0 39 -14 53t-35 14q-18 0 -32.5 -14 t-14.5 -53v-770z" />
<glyph unicode="&#xd3;" horiz-adv-x="796" d="M23 358v719q0 188 97 282.5t273 94.5q178 0 279.5 -95t101.5 -282v-719q0 -186 -101.5 -282t-279.5 -96q-176 0 -273 95t-97 283zM289 1515l67 281h238l-103 -281h-202zM350 332q0 -37 14.5 -52.5t32.5 -15.5q20 0 34.5 15.5t14.5 52.5v770q0 39 -14 53t-35 14 q-18 0 -32.5 -14t-14.5 -53v-770z" />
<glyph unicode="&#xd4;" horiz-adv-x="796" d="M23 358v719q0 188 97 282.5t273 94.5q178 0 279.5 -95t101.5 -282v-719q0 -186 -101.5 -282t-279.5 -96q-176 0 -273 95t-97 283zM199 1515l88 281h223l88 -281h-170l-25 113h-12l-22 -113h-170zM350 332q0 -37 14.5 -52.5t32.5 -15.5q20 0 34.5 15.5t14.5 52.5v770 q0 39 -14 53t-35 14q-18 0 -32.5 -14t-14.5 -53v-770z" />
<glyph unicode="&#xd5;" horiz-adv-x="796" d="M23 358v719q0 188 97 282.5t273 94.5q178 0 279.5 -95t101.5 -282v-719q0 -186 -101.5 -282t-279.5 -96q-176 0 -273 95t-97 283zM201 1523v17q0 123 26.5 189.5t79.5 66.5q23 0 48.5 -12.5t49.5 -30.5l9 -7q23 -16 40 -25t33 -9q37 0 37 61v16h72v-16 q0 -135 -25.5 -196.5t-77.5 -61.5q-27 0 -53 13.5t-51 33.5l-8 6q-20 16 -37.5 25.5t-32.5 9.5q-35 0 -35 -65v-15h-75zM350 332q0 -37 14.5 -52.5t32.5 -15.5q20 0 34.5 15.5t14.5 52.5v770q0 39 -14 53t-35 14q-18 0 -32.5 -14t-14.5 -53v-770z" />
<glyph unicode="&#xd6;" horiz-adv-x="796" d="M23 358v719q0 188 97 282.5t273 94.5q178 0 279.5 -95t101.5 -282v-719q0 -186 -101.5 -282t-279.5 -96q-176 0 -273 95t-97 283zM117 1654q0 66 27.5 103t105.5 37t106.5 -38t28.5 -102q0 -63 -28.5 -100t-104.5 -37q-78 0 -106.5 37t-28.5 100zM350 332 q0 -37 14.5 -52.5t32.5 -15.5q20 0 34.5 15.5t14.5 52.5v770q0 39 -14 53t-35 14q-18 0 -32.5 -14t-14.5 -53v-770zM409 1654q0 66 28 103t106 37t106.5 -38t28.5 -102q0 -63 -29 -100t-104 -37q-78 0 -107 37t-29 100z" />
<glyph unicode="&#xd7;" horiz-adv-x="831" d="M27 485l209 209l-209 209l180 180l209 -209l209 209l180 -180l-209 -209l209 -209l-180 -180l-209 209l-209 -209z" />
<glyph unicode="&#xd8;" horiz-adv-x="796" d="M23 10l55 117q-55 90 -55 231v719q0 188 97 282.5t273 94.5t275 -92l43 92l63 -31l-57 -120q57 -92 57 -226v-719q0 -186 -101.5 -282t-279.5 -96q-174 0 -264 88l-43 -88zM350 332q0 -37 14.5 -52.5t32.5 -15.5q20 0 34.5 15.5t14.5 52.5v401l-96 -201v-200zM350 696 l96 201v205q0 39 -14 53t-35 14q-18 0 -32.5 -14t-14.5 -53v-406z" />
<glyph unicode="&#xd9;" horiz-adv-x="790" d="M23 358v1076h327v-1102q0 -37 13.5 -52.5t31.5 -15.5t31.5 15.5t13.5 52.5v1102h328v-1076q0 -186 -100.5 -282t-278.5 -96q-176 0 -271 95t-95 283zM199 1796h237l68 -281h-203z" />
<glyph unicode="&#xda;" horiz-adv-x="790" d="M23 358v1076h327v-1102q0 -37 13.5 -52.5t31.5 -15.5t31.5 15.5t13.5 52.5v1102h328v-1076q0 -186 -100.5 -282t-278.5 -96q-176 0 -271 95t-95 283zM289 1515l67 281h238l-103 -281h-202z" />
<glyph unicode="&#xdb;" horiz-adv-x="790" d="M23 358v1076h327v-1102q0 -37 13.5 -52.5t31.5 -15.5t31.5 15.5t13.5 52.5v1102h328v-1076q0 -186 -100.5 -282t-278.5 -96q-176 0 -271 95t-95 283zM197 1515l88 281h223l88 -281h-170l-25 113h-12l-22 -113h-170z" />
<glyph unicode="&#xdc;" horiz-adv-x="790" d="M23 358v1076h327v-1102q0 -37 13.5 -52.5t31.5 -15.5t31.5 15.5t13.5 52.5v1102h328v-1076q0 -186 -100.5 -282t-278.5 -96q-176 0 -271 95t-95 283zM115 1654q0 66 27.5 103t105.5 37t106.5 -38t28.5 -102q0 -63 -28.5 -100t-104.5 -37q-78 0 -106.5 37t-28.5 100z M407 1654q0 66 28 103t106 37t106.5 -38t28.5 -102q0 -63 -29 -100t-104 -37q-78 0 -107 37t-29 100z" />
<glyph unicode="&#xdd;" horiz-adv-x="761" d="M8 1434h328l35 -588h22l33 588h328l-211 -1041v-393h-328v393zM273 1515l67 281h238l-103 -281h-202z" />
<glyph unicode="&#xde;" horiz-adv-x="790" d="M25 0v1434h327v-222h39q180 0 278.5 -121.5t98.5 -383.5v-5q0 -135 -23.5 -227t-70.5 -148.5t-119 -81t-168 -24.5h-35v-221h-327zM352 506h35q33 0 44 16.5t11 59.5v268q0 45 -11 62.5t-44 17.5h-35v-424z" />
<glyph unicode="&#xdf;" horiz-adv-x="804" d="M25 0v1075q0 170 81.5 264.5t258.5 94.5h26q184 0 279.5 -91.5t95.5 -261.5v-10q0 -80 -19.5 -139.5t-49 -101.5t-66.5 -63.5t-74 -23.5v-20q37 -2 77 -26.5t74.5 -69.5t57 -107.5t22.5 -140.5v-25q0 -168 -96 -261t-282 -93h-17v285h17q33 0 44 24.5t11 71.5v113 q0 39 -12.5 67.5t-44.5 28.5h-13v284h13q31 0 42 25t11 72v102q0 47 -15.5 61.5t-39.5 14.5h-7q-18 0 -32.5 -13.5t-14.5 -60.5v-1075h-327z" />
<glyph unicode="&#xe0;" d="M20 195v151q0 96 66 156.5t168 60.5h160v170q0 66 -41 66t-41 -66v-131h-309v113q0 164 92 257t254 93q164 0 259 -94t95 -256v-715h-309v88h-8q-78 -109 -191 -108q-86 0 -140.5 59t-54.5 156zM175 1407h237l68 -281h-203zM330 266q0 -47 37 -47q31 0 47 37v156h-31 q-53 0 -53 -45v-101z" />
<glyph unicode="&#xe1;" d="M20 195v151q0 96 66 156.5t168 60.5h160v170q0 66 -41 66t-41 -66v-131h-309v113q0 164 92 257t254 93q164 0 259 -94t95 -256v-715h-309v88h-8q-78 -109 -191 -108q-86 0 -140.5 59t-54.5 156zM263 1126l67 281h238l-103 -281h-202zM330 266q0 -47 37 -47q31 0 47 37 v156h-31q-53 0 -53 -45v-101z" />
<glyph unicode="&#xe2;" d="M20 195v151q0 96 66 156.5t168 60.5h160v170q0 66 -41 66t-41 -66v-131h-309v113q0 164 92 257t254 93q164 0 259 -94t95 -256v-715h-309v88h-8q-78 -109 -191 -108q-86 0 -140.5 59t-54.5 156zM170 1126l88 281h223l88 -281h-170l-25 113h-12l-22 -113h-170zM330 266 q0 -47 37 -47q31 0 47 37v156h-31q-53 0 -53 -45v-101z" />
<glyph unicode="&#xe3;" d="M20 195v151q0 96 66 156.5t168 60.5h160v170q0 66 -41 66t-41 -66v-131h-309v113q0 164 92 257t254 93q164 0 259 -94t95 -256v-715h-309v88h-8q-78 -109 -191 -108q-86 0 -140.5 59t-54.5 156zM174 1134v17q0 123 26.5 189.5t79.5 66.5q23 0 48.5 -12.5t49.5 -30.5l9 -7 q23 -16 40 -25t33 -9q37 0 37 61v16h72v-16q0 -135 -25.5 -196.5t-77.5 -61.5q-27 0 -53 13.5t-51 33.5l-8 6q-20 16 -37.5 25.5t-32.5 9.5q-35 0 -35 -65v-15h-75zM330 266q0 -47 37 -47q31 0 47 37v156h-31q-53 0 -53 -45v-101z" />
<glyph unicode="&#xe4;" d="M20 195v151q0 96 66 156.5t168 60.5h160v170q0 66 -41 66t-41 -66v-131h-309v113q0 164 92 257t254 93q164 0 259 -94t95 -256v-715h-309v88h-8q-78 -109 -191 -108q-86 0 -140.5 59t-54.5 156zM91 1265q0 66 27.5 103t105.5 37t106.5 -38t28.5 -102q0 -63 -28.5 -100 t-104.5 -37q-78 0 -106.5 37t-28.5 100zM330 266q0 -47 37 -47q31 0 47 37v156h-31q-53 0 -53 -45v-101zM383 1265q0 66 28 103t106 37t106.5 -38t28.5 -102q0 -63 -29 -100t-104 -37q-78 0 -107 37t-29 100z" />
<glyph unicode="&#xe5;" d="M20 195v151q0 96 66 156.5t168 60.5h160v170q0 66 -41 66t-41 -66v-131h-309v113q0 164 92 257t254 93q164 0 259 -94t95 -256v-715h-309v88h-8q-78 -109 -191 -108q-86 0 -140.5 59t-54.5 156zM199 1267q0 76 46 112t126 36t127 -37t47 -111q0 -78 -46 -113.5 t-126 -35.5q-82 0 -128 35.5t-46 113.5zM301 1267q0 -57 72 -57q70 0 69 57q0 29 -19.5 42.5t-51.5 13.5q-70 -1 -70 -56zM330 266q0 -47 37 -47q31 0 47 37v156h-31q-53 0 -53 -45v-101z" />
<glyph unicode="&#xe6;" horiz-adv-x="1138" d="M20 197v151q0 94 66 154.5t168 60.5h160v170q0 66 -41 66t-41 -66v-131h-309v113q0 164 92 257t254 93q59 0 104 -15.5t82 -43.5h20q37 29 82 44t105 15q164 0 259 -94t95 -256v-262h-393v-142q0 -66 43 -65q41 0 41 65v86h309v-67q0 -162 -95 -256t-259 -94 q-113 0 -188.5 46t-112.5 130h-23q-45 -92 -100 -134t-123 -42q-86 0 -140.5 60t-54.5 157zM330 266q0 -45 37 -45q31 0 47 35v158h-31q-53 0 -53 -47v-101zM723 618h84v115q0 66 -41 66q-43 0 -43 -66v-115z" />
<glyph unicode="&#xe7;" d="M20 328v387q0 164 92.5 257t256.5 93t259 -94t95 -256v-160h-309v178q0 66 -43 66q-41 0 -41 -66v-422q0 -66 41 -65q43 0 43 65v178h309v-161q0 -160 -95.5 -254t-258.5 -94q-164 0 -256.5 93t-92.5 255zM242 -260q35 -6 65 -6q43 0 73 13t30 34q0 20 -33 31.5t-92 11.5 l32 174h123l-10 -98q100 0 151.5 -42t51.5 -96q0 -59 -60.5 -107t-179.5 -48q-31 0 -69.5 4t-81.5 12v117z" />
<glyph unicode="&#xe8;" d="M20 330v387q0 162 92.5 255t254.5 93q164 0 260 -94t96 -254v-268h-393v-138q0 -66 41 -65q43 0 43 65v86h309v-67q0 -162 -96.5 -256t-259.5 -94q-162 0 -254.5 93t-92.5 257zM172 1407h237l68 -281h-203zM330 614h84v119q0 66 -43 66q-41 0 -41 -66v-119z" />
<glyph unicode="&#xe9;" d="M20 330v387q0 162 92.5 255t254.5 93q164 0 260 -94t96 -254v-268h-393v-138q0 -66 41 -65q43 0 43 65v86h309v-67q0 -162 -96.5 -256t-259.5 -94q-162 0 -254.5 93t-92.5 257zM261 1126l67 281h238l-103 -281h-202zM330 614h84v119q0 66 -43 66q-41 0 -41 -66v-119z" />
<glyph unicode="&#xea;" d="M20 330v387q0 162 92.5 255t254.5 93q164 0 260 -94t96 -254v-268h-393v-138q0 -66 41 -65q43 0 43 65v86h309v-67q0 -162 -96.5 -256t-259.5 -94q-162 0 -254.5 93t-92.5 257zM170 1126l88 281h223l88 -281h-170l-25 113h-12l-22 -113h-170zM330 614h84v119q0 66 -43 66 q-41 0 -41 -66v-119z" />
<glyph unicode="&#xeb;" d="M20 330v387q0 162 92.5 255t254.5 93q164 0 260 -94t96 -254v-268h-393v-138q0 -66 41 -65q43 0 43 65v86h309v-67q0 -162 -96.5 -256t-259.5 -94q-162 0 -254.5 93t-92.5 257zM88 1265q0 66 27.5 103t105.5 37t106.5 -38t28.5 -102q0 -63 -28.5 -100t-104.5 -37 q-78 0 -106.5 37t-28.5 100zM330 614h84v119q0 66 -43 66q-41 0 -41 -66v-119zM380 1265q0 66 28 103t106 37t106.5 -38t28.5 -102q0 -63 -29 -100t-104 -37q-78 0 -107 37t-29 100z" />
<glyph unicode="&#xec;" horiz-adv-x="364" d="M-16 1407h237l68 -281h-203zM27 0v1044h309v-1044h-309z" />
<glyph unicode="&#xed;" horiz-adv-x="364" d="M27 0v1044h309v-1044h-309zM74 1126l67 281h238l-103 -281h-202z" />
<glyph unicode="&#xee;" horiz-adv-x="364" d="M-18 1126l88 281h223l88 -281h-170l-25 113h-12l-22 -113h-170zM27 0v1044h309v-1044h-309z" />
<glyph unicode="&#xef;" horiz-adv-x="587" d="M13 1265q0 66 27.5 103t105.5 37t106.5 -38t28.5 -102q0 -63 -28.5 -100t-104.5 -37q-78 0 -106.5 37t-28.5 100zM140 0v1044h309v-1044h-309zM305 1265q0 66 28 103t106 37t106.5 -38t28.5 -102q0 -63 -29 -100t-104 -37q-78 0 -107 37t-29 100z" />
<glyph unicode="&#xf0;" d="M20 285v442q0 78 23 139.5t58.5 106.5t80.5 68.5t90 23.5q53 0 97.5 -33t66.5 -104l21 6q-16 106 -48 186t-90 140l-149 -101l-45 62l135 90q-74 53 -197 94l29 70q78 -16 145.5 -40t127.5 -55l141 95l43 -62l-115 -76q289 -203 289 -620v-389q0 -76 -23.5 -139.5 t-68.5 -109.5t-112.5 -72.5t-158.5 -26.5q-166 0 -253 85t-87 220zM330 311q0 -66 43 -65q41 0 41 65v422q0 66 -41 66q-43 0 -43 -66v-422z" />
<glyph unicode="&#xf1;" d="M23 0v1044h311v-104h20q61 125 176 125q80 0 137.5 -65.5t57.5 -211.5v-788h-309v743q0 51 -37 52q-29 0 -45 -37v-758h-311zM179 1134v17q0 123 26.5 189.5t79.5 66.5q23 0 48.5 -12.5t49.5 -30.5l9 -7q23 -16 40 -25t33 -9q37 0 37 61v16h72v-16q0 -135 -25.5 -196.5 t-77.5 -61.5q-27 0 -53 13.5t-51 33.5l-8 6q-20 16 -37.5 25.5t-32.5 9.5q-35 0 -35 -65v-15h-75z" />
<glyph unicode="&#xf2;" d="M20 328v387q0 154 88.5 252t260.5 98q86 0 152.5 -26.5t110.5 -72.5t67.5 -110.5t23.5 -140.5v-387q0 -76 -23.5 -139.5t-67.5 -109.5t-110.5 -72.5t-152.5 -26.5t-151.5 25.5t-108.5 71.5t-66 110.5t-23 140.5zM172 1407h237l68 -281h-203zM330 311q0 -66 43 -65 q41 0 41 65v422q0 66 -41 66q-43 0 -43 -66v-422z" />
<glyph unicode="&#xf3;" d="M20 328v387q0 154 88.5 252t260.5 98q86 0 152.5 -26.5t110.5 -72.5t67.5 -110.5t23.5 -140.5v-387q0 -76 -23.5 -139.5t-67.5 -109.5t-110.5 -72.5t-152.5 -26.5t-151.5 25.5t-108.5 71.5t-66 110.5t-23 140.5zM263 1126l67 281h238l-103 -281h-202zM330 311 q0 -66 43 -65q41 0 41 65v422q0 66 -41 66q-43 0 -43 -66v-422z" />
<glyph unicode="&#xf4;" d="M20 328v387q0 154 88.5 252t260.5 98q86 0 152.5 -26.5t110.5 -72.5t67.5 -110.5t23.5 -140.5v-387q0 -76 -23.5 -139.5t-67.5 -109.5t-110.5 -72.5t-152.5 -26.5t-151.5 25.5t-108.5 71.5t-66 110.5t-23 140.5zM170 1126l88 281h223l88 -281h-170l-25 113h-12l-22 -113 h-170zM330 311q0 -66 43 -65q41 0 41 65v422q0 66 -41 66q-43 0 -43 -66v-422z" />
<glyph unicode="&#xf5;" d="M20 328v387q0 154 88.5 252t260.5 98q86 0 152.5 -26.5t110.5 -72.5t67.5 -110.5t23.5 -140.5v-387q0 -76 -23.5 -139.5t-67.5 -109.5t-110.5 -72.5t-152.5 -26.5t-151.5 25.5t-108.5 71.5t-66 110.5t-23 140.5zM172 1134v17q0 123 26.5 189.5t79.5 66.5q23 0 48.5 -12.5 t49.5 -30.5l9 -7q23 -16 40 -25t33 -9q37 0 37 61v16h72v-16q0 -135 -25.5 -196.5t-77.5 -61.5q-27 0 -53 13.5t-51 33.5l-8 6q-20 16 -37.5 25.5t-32.5 9.5q-35 0 -35 -65v-15h-75zM330 311q0 -66 43 -65q41 0 41 65v422q0 66 -41 66q-43 0 -43 -66v-422z" />
<glyph unicode="&#xf6;" d="M20 328v387q0 154 88.5 252t260.5 98q86 0 152.5 -26.5t110.5 -72.5t67.5 -110.5t23.5 -140.5v-387q0 -76 -23.5 -139.5t-67.5 -109.5t-110.5 -72.5t-152.5 -26.5t-151.5 25.5t-108.5 71.5t-66 110.5t-23 140.5zM88 1265q0 66 27.5 103t105.5 37t106.5 -38t28.5 -102 q0 -63 -28.5 -100t-104.5 -37q-78 0 -106.5 37t-28.5 100zM330 311q0 -66 43 -65q41 0 41 65v422q0 66 -41 66q-43 0 -43 -66v-422zM380 1265q0 66 28 103t106 37t106.5 -38t28.5 -102q0 -63 -29 -100t-104 -37q-78 0 -107 37t-29 100z" />
<glyph unicode="&#xf7;" horiz-adv-x="788" d="M25 583v238h739v-238h-739zM250 400q0 151 144 151q71 0 107.5 -39.5t36.5 -113.5q0 -151 -144 -151t-144 153zM250 1010q0 151 144 151q71 0 107.5 -39.5t36.5 -113.5q0 -151 -144 -151t-144 153z" />
<glyph unicode="&#xf8;" d="M20 328v387q0 154 88.5 252t260.5 98q78 0 138 -21.5t105 -58.5l50 80l61 -35l-61 -100q61 -86 61 -215v-387q0 -76 -23.5 -139.5t-67.5 -109.5t-110.5 -72.5t-152.5 -26.5q-78 0 -136.5 20t-101.5 57l-47 -77l-61 34l59 97q-61 90 -62 217zM330 311q0 -66 43 -65 q41 0 41 65v211l-84 -137v-74zM330 520l84 137v76q0 66 -41 66q-43 0 -43 -66v-213z" />
<glyph unicode="&#xf9;" d="M20 256v788h310v-751q0 -51 37 -51q29 0 47 39v763h309v-1044h-309v104h-23q-61 -125 -176 -124q-80 0 -137.5 65.5t-57.5 210.5zM172 1407h237l68 -281h-203z" />
<glyph unicode="&#xfa;" d="M20 256v788h310v-751q0 -51 37 -51q29 0 47 39v763h309v-1044h-309v104h-23q-61 -125 -176 -124q-80 0 -137.5 65.5t-57.5 210.5zM263 1126l67 281h238l-103 -281h-202z" />
<glyph unicode="&#xfb;" d="M20 256v788h310v-751q0 -51 37 -51q29 0 47 39v763h309v-1044h-309v104h-23q-61 -125 -176 -124q-80 0 -137.5 65.5t-57.5 210.5zM170 1126l88 281h223l88 -281h-170l-25 113h-12l-22 -113h-170z" />
<glyph unicode="&#xfc;" d="M20 256v788h310v-751q0 -51 37 -51q29 0 47 39v763h309v-1044h-309v104h-23q-61 -125 -176 -124q-80 0 -137.5 65.5t-57.5 210.5zM88 1265q0 66 27.5 103t105.5 37t106.5 -38t28.5 -102q0 -63 -28.5 -100t-104.5 -37q-78 0 -106.5 37t-28.5 100zM380 1265q0 66 28 103 t106 37t106.5 -38t28.5 -102q0 -63 -29 -100t-104 -37q-78 0 -107 37t-29 100z" />
<glyph unicode="&#xfd;" d="M23 256v788h309v-751q0 -51 37 -51q29 0 47 39v763h309v-1161q0 -150 -91 -231.5t-257 -81.5t-259 83t-93 230v58h309v-41q0 -63 41 -64q41 0 41 68v200h-23q-61 -125 -176 -124q-80 0 -137 65.5t-57 210.5zM263 1126l67 281h238l-103 -281h-202z" />
<glyph unicode="&#xfe;" d="M23 -430v1905h309v-531l22 -2q59 123 181 123q86 0 138 -64.5t52 -193.5v-539q0 -133 -53.5 -210.5t-145.5 -77.5q-53 0 -99 30.5t-73 91.5h-22v-532h-309zM332 289q14 -37 45 -37q16 0 27.5 15.5t11.5 37.5v438q0 23 -10.5 36.5t-26.5 13.5q-33 0 -47 -37v-467z" />
<glyph unicode="&#xff;" d="M23 256v788h309v-751q0 -51 37 -51q29 0 47 39v763h309v-1161q0 -150 -91 -231.5t-257 -81.5t-259 83t-93 230v58h309v-41q0 -63 41 -64q41 0 41 68v200h-23q-61 -125 -176 -124q-80 0 -137 65.5t-57 210.5zM88 1265q0 66 27.5 103t105.5 37t106.5 -38t28.5 -102 q0 -63 -28.5 -100t-104.5 -37q-78 0 -106.5 37t-28.5 100zM380 1265q0 66 28 103t106 37t106.5 -38t28.5 -102q0 -63 -29 -100t-104 -37q-78 0 -107 37t-29 100z" />
<glyph unicode="&#x152;" horiz-adv-x="980" d="M23 379v678q0 188 97 282.5t273 94.5h568v-285h-199v-254h196v-285h-196v-325h203v-285h-572q-176 0 -273 95t-97 284zM350 352q0 -37 15.5 -52t37.5 -15h31v864h-31q-23 0 -38 -14.5t-15 -55.5v-727z" />
<glyph unicode="&#x153;" horiz-adv-x="1138" d="M20 330v387q0 76 23 140.5t66 110.5t108.5 71.5t151.5 25.5q59 0 104 -15.5t82 -43.5h20q37 29 82 44t105 15q164 0 259 -94t95 -254v-268h-393v-138q0 -66 43 -65q41 0 41 65v86h309v-67q0 -162 -95 -256t-259 -94q-59 0 -103.5 15t-80.5 44h-23q-35 -29 -81 -44 t-105 -15q-172 0 -260.5 98t-88.5 252zM330 311q0 -66 43 -65q41 0 41 65v422q0 66 -41 66q-43 0 -43 -66v-422zM723 614h84v119q0 66 -41 66q-43 0 -43 -66v-119z" />
<glyph unicode="&#x178;" horiz-adv-x="761" d="M8 1434h328l35 -588h22l33 588h328l-211 -1041v-393h-328v393zM101 1654q0 66 27.5 103t105.5 37t106.5 -38t28.5 -102q0 -63 -28.5 -100t-104.5 -37q-78 0 -106.5 37t-28.5 100zM393 1654q0 66 28 103t106 37t106.5 -38t28.5 -102q0 -63 -29 -100t-104 -37 q-78 0 -107 37t-29 100z" />
<glyph unicode="&#x2c6;" horiz-adv-x="450" d="M25 1153l88 281h223l88 -281h-170l-25 113h-12l-22 -113h-170z" />
<glyph unicode="&#x2dc;" horiz-adv-x="448" d="M27 1161v17q0 123 26.5 189.5t79.5 66.5q23 0 48.5 -12.5t49.5 -30.5l9 -7q23 -16 40 -25t33 -9q37 0 37 61v16h72v-16q0 -135 -25.5 -196.5t-77.5 -61.5q-27 0 -53 13.5t-51 33.5l-8 6q-20 16 -37.5 25.5t-32.5 9.5q-35 0 -35 -65v-15h-75z" />
<glyph unicode="&#x2000;" horiz-adv-x="902" />
<glyph unicode="&#x2001;" horiz-adv-x="1804" />
<glyph unicode="&#x2002;" horiz-adv-x="902" />
<glyph unicode="&#x2003;" horiz-adv-x="1804" />
<glyph unicode="&#x2004;" horiz-adv-x="601" />
<glyph unicode="&#x2005;" horiz-adv-x="451" />
<glyph unicode="&#x2006;" horiz-adv-x="300" />
<glyph unicode="&#x2007;" horiz-adv-x="300" />
<glyph unicode="&#x2008;" horiz-adv-x="225" />
<glyph unicode="&#x2009;" horiz-adv-x="360" />
<glyph unicode="&#x200a;" horiz-adv-x="100" />
<glyph unicode="&#x2010;" horiz-adv-x="540" d="M25 553v285h491v-285h-491z" />
<glyph unicode="&#x2011;" horiz-adv-x="540" d="M25 553v285h491v-285h-491z" />
<glyph unicode="&#x2012;" horiz-adv-x="540" d="M25 553v285h491v-285h-491z" />
<glyph unicode="&#x2013;" horiz-adv-x="1034" d="M27 553v285h1036v-285h-1036z" />
<glyph unicode="&#x2014;" horiz-adv-x="1523" d="M27 553v285h1689v-285h-1689z" />
<glyph unicode="&#x2018;" horiz-adv-x="368" d="M25 842l100 633h219l-27 -633h-292z" />
<glyph unicode="&#x2019;" horiz-adv-x="368" d="M25 841l27 633h292l-100 -633h-219z" />
<glyph unicode="&#x201a;" horiz-adv-x="368" d="M25 -236l26 633h293l-100 -633h-219z" />
<glyph unicode="&#x201c;" horiz-adv-x="698" d="M25 842l100 633h219l-27 -633h-292zM354 842l101 633h219l-27 -633h-293z" />
<glyph unicode="&#x201d;" horiz-adv-x="698" d="M24 841l27 633h293l-101 -633h-219zM354 841l27 633h292l-100 -633h-219z" />
<glyph unicode="&#x201e;" horiz-adv-x="698" d="M25 -236l26 633h293l-100 -633h-219zM355 -236l26 633h293l-100 -633h-219z" />
<glyph unicode="&#x2022;" horiz-adv-x="518" d="M27 752q0 111 61.5 172t171.5 61q113 0 173.5 -61.5t60.5 -171.5q0 -111 -60.5 -172.5t-173.5 -61.5q-111 0 -172 61.5t-61 172.5z" />
<glyph unicode="&#x2026;" horiz-adv-x="1069" d="M25 160q0 168 161 168q78 0 119 -44t41 -126q0 -168 -160 -168q-161 0 -161 170zM373 160q0 168 161 168q78 0 119 -44t41 -126q0 -168 -160 -168q-161 0 -161 170zM723 160q0 168 161 168q78 0 119 -44t41 -126q0 -168 -160 -168q-161 0 -161 170z" />
<glyph unicode="&#x202f;" horiz-adv-x="360" />
<glyph unicode="&#x2039;" horiz-adv-x="641" d="M25 430v221l587 275l4 -293l-243 -88v-4l243 -88l-4 -293z" />
<glyph unicode="&#x203a;" horiz-adv-x="641" d="M25 452l243 88v4l-243 88l4 293l587 -270v-221l-587 -275z" />
<glyph unicode="&#x205f;" horiz-adv-x="451" />
<glyph unicode="&#x20ac;" horiz-adv-x="964" d="M23 455v237h81v49h-81v220h81v116q0 188 109 282.5t305 94.5q199 0 311.5 -95t112.5 -282v-321h-328v274q0 47 -9 73.5t-23.5 42t-29.5 19.5t-28 4q-12 0 -28.5 -4t-30.5 -19.5t-23.5 -42t-9.5 -73.5v-69h123v-220h-123v-49h123v-237h-123v-52q0 -45 9.5 -72.5t23.5 -42 t30.5 -19.5t28.5 -5t27.5 5t30 19.5t23.5 42t9 72.5v275h328v-320q0 -186 -112.5 -282t-311.5 -96q-197 0 -305.5 95t-108.5 283v97h-81z" />
<glyph unicode="&#x2122;" horiz-adv-x="772" d="M25 1317v117h260v-117h-62v-457h-135v457h-63zM309 860v574h197l12 -347h23l14 347h193v-574h-123l10 342h-21l-30 -342h-109l-35 342h-22l14 -342h-123z" />
<glyph unicode="&#x25fc;" horiz-adv-x="1044" d="M0 0v1044h1044v-1044h-1044z" />
<glyph unicode="&#xfb01;" horiz-adv-x="919" d="M0 778v266h88v76q0 100 21.5 168t60.5 109t95.5 58.5t123.5 17.5q41 0 84 -5.5t90 -13.5l-2 -266q-16 4 -31.5 6t-31.5 2q-41 0 -71 -20.5t-30 -73.5v-58h164v-266h-164v-778h-309v778h-88zM567 1274q0 78 45 114.5t123 36.5t126 -36.5t48 -114.5t-47 -115t-125 -37 t-124 37t-46 115zM584 0v1044h311v-1044h-311z" />
<glyph unicode="&#xfb02;" horiz-adv-x="919" d="M0 778v266h88v76q0 100 21.5 168t60.5 109t95.5 58.5t123.5 17.5q41 0 84 -5.5t90 -13.5l-2 -266q-16 4 -31.5 6t-31.5 2q-41 0 -71 -20.5t-30 -73.5v-58h164v-266h-164v-778h-309v778h-88zM588 0v1475h309v-1475h-309z" />
</font>
</defs>
</svg>
